<?xml version="1.0" encoding="UTF-8" standalone="no"?>
<!-- Created with Inkscape (http://www.inkscape.org/) -->

<svg
   width="31.591206mm"
   height="6.90378mm"
   viewBox="0 0 31.591206 6.90378"
   version="1.1"
   id="svg5"
   xml:space="preserve"
   inkscape:version="1.2.1 (9c6d41e410, 2022-07-14)"
   sodipodi:docname="zacvik.svg"
   xmlns:inkscape="http://www.inkscape.org/namespaces/inkscape"
   xmlns:sodipodi="http://sodipodi.sourceforge.net/DTD/sodipodi-0.dtd"
   xmlns="http://www.w3.org/2000/svg"
   xmlns:svg="http://www.w3.org/2000/svg"><sodipodi:namedview
     id="namedview7"
     pagecolor="#ffffff"
     bordercolor="#313131"
     borderopacity="1"
     inkscape:showpageshadow="0"
     inkscape:pageopacity="0"
     inkscape:pagecheckerboard="0"
     inkscape:deskcolor="#686868"
     inkscape:document-units="mm"
     showgrid="false"
     inkscape:zoom="8.403924"
     inkscape:cx="53.189439"
     inkscape:cy="-3.0342968"
     inkscape:window-width="1920"
     inkscape:window-height="1011"
     inkscape:window-x="0"
     inkscape:window-y="0"
     inkscape:window-maximized="1"
     inkscape:current-layer="layer1" /><defs
     id="defs2"><rect
       x="318.57837"
       y="905.73047"
       width="114.47083"
       height="40.891338"
       id="rect1664" /><rect
       x="318.57837"
       y="905.73047"
       width="114.47083"
       height="40.891338"
       id="rect252" /></defs><g
     inkscape:label="Layer 1"
     inkscape:groupmode="layer"
     id="layer1"
     transform="translate(-78.041733,-244.51272)"><rect
       style="opacity:1;fill:none;fill-rule:evenodd;stroke-width:0.264999"
       id="rect1774"
       width="6.5429177"
       height="6.6069965"
       x="69.610123"
       y="244.51273"
       inkscape:export-filename="favicon.jpg"
       inkscape:export-xdpi="61.510582"
       inkscape:export-ydpi="61.510582" /><path
       id="rect300"
       style="opacity:1;fill:#ff2a2a;fill-rule:evenodd;stroke-width:0.264999"
       d="m 78.041733,244.51272 v 1.53944 h 2.80603 l -2.80603,2.79828 v 1.27434 h 1.262455 l 0.0078,-0.008 0.07131,-0.0713 2.734717,-2.72697 v 2.72697 0.0713 0.008 h 1.535824 v -5.61206 z" /><g
       aria-label="ZACVIK"
       transform="matrix(0.29537765,0,0,0.29537765,-8.9715724,-24.302091)"
       id="text1662"
       style="font-weight:bold;font-size:24px;font-family:'Lohit Odia';-inkscape-font-specification:'Lohit Odia Bold';text-align:justify;white-space:pre;shape-inside:url(#rect1664);display:inline;opacity:1;fill:#ffffff;fill-rule:evenodd;stroke-width:1.00157"><path
         d="m 332.26562,927.38781 v -3.6914 h -7.61718 l 7.26562,-8.63672 V 911.755 H 319.5625 v 3.69141 h 6.91406 l -7.26562,8.63671 v 3.30469 z"
         style="font-weight:normal;font-family:'FONTSPRING DEMO - neue Singular H Black';-inkscape-font-specification:'FONTSPRING DEMO - neue Singular H Black, Normal'"
         id="path254" /><path
         d="M 349.5625,927.38781 343.53906,911.755 h -4.64062 l -6,15.63281 h 4.16015 l 0.92578,-2.55469 h 6.41016 l 0.9375,2.55469 z m -8.37891,-11.34375 1.91016,5.21485 h -3.80859 z"
         style="font-weight:normal;font-family:'FONTSPRING DEMO - neue Singular H Black';-inkscape-font-specification:'FONTSPRING DEMO - neue Singular H Black, Normal'"
         id="path256" /><path
         d="m 356.92187,927.62219 c 4.3125,0 7.42969,-2.67188 8.07422,-6.9961 h -4.18359 c -0.50391,2.02735 -1.96875,3.2461 -4.00781,3.2461 -2.4961,0 -3.96094,-1.875 -3.96094,-4.30078 0,-2.42579 1.46484,-4.30079 3.96094,-4.30079 2.03906,0 3.5039,1.21875 4.00781,3.2461 h 4.18359 c -0.64453,-4.32422 -3.76172,-6.9961 -8.07422,-6.9961 -4.91015,0 -8.23828,3.52735 -8.23828,8.05079 0,4.52343 3.32813,8.05078 8.23828,8.05078 z"
         style="font-weight:normal;font-family:'FONTSPRING DEMO - neue Singular H Black';-inkscape-font-specification:'FONTSPRING DEMO - neue Singular H Black, Normal'"
         id="path258" /><path
         d="M 372.33203,923.11047 368.51172,911.755 h -4.23047 l 5.61328,15.63281 h 4.875 l 5.58984,-15.63281 h -4.18359 z"
         style="font-weight:normal;font-family:'FONTSPRING DEMO - neue Singular H Black';-inkscape-font-specification:'FONTSPRING DEMO - neue Singular H Black, Normal'"
         id="path260" /><path
         d="M 385.16406,927.38781 V 911.755 h -3.98437 v 15.63281 z"
         style="font-weight:normal;font-family:'FONTSPRING DEMO - neue Singular H Black';-inkscape-font-specification:'FONTSPRING DEMO - neue Singular H Black, Normal'"
         id="path262" /><path
         d="m 395.19531,918.03625 6.22266,-6.28125 h -5.22656 l -5.42579,5.55469 V 911.755 h -3.96093 v 15.63281 h 3.96093 v -5.34375 l 1.45313,-1.55859 4.52344,6.90234 h 4.79297 z"
         style="font-weight:normal;font-family:'FONTSPRING DEMO - neue Singular H Black';-inkscape-font-specification:'FONTSPRING DEMO - neue Singular H Black, Normal'"
         id="path264" /></g><path
       id="path1512"
       style="opacity:1;fill:#ff2a2a;fill-rule:evenodd;stroke-width:0.264999"
       d="m 70.07539,244.51272 v 1.53944 h 2.80603 l -2.80603,2.79828 v 1.27434 h 1.262455 l 0.0078,-0.008 0.07131,-0.0713 2.734717,-2.72697 v 2.72697 0.0713 0.008 h 1.535824 v -5.61206 z" /><path
       style="fill:#ff2a2a;fill-opacity:1;fill-rule:evenodd;stroke-width:0.421532"
       d="m 83.65415,250.41766 v 0.99884 h -5.612417 v -0.99884 z"
       id="path1514" /><path
       style="fill:#ff2a2a;fill-opacity:1;fill-rule:evenodd;stroke-width:0.421532"
       d="m 75.687789,250.41766 v 0.99884 h -5.612417 v -0.99884 z"
       id="path1943" /><path
       id="path242"
       style="opacity:1;fill:#ff2a2a;fill-rule:evenodd;stroke-width:0.264999"
       d="m 78.041733,233.92938 v 1.53944 h 2.80603 l -2.80603,2.79828 v 1.27434 h 1.262455 l 0.0078,-0.008 0.07131,-0.0713 2.734717,-2.72697 v 2.72697 0.0713 0.008 h 1.535824 v -5.61206 z" /><text
       xml:space="preserve"
       transform="matrix(0.29537765,0,0,0.29537765,-8.9715724,-34.885425)"
       id="text248"
       style="font-style:normal;font-variant:normal;font-weight:bold;font-stretch:normal;font-size:24px;font-family:'Lohit Odia';-inkscape-font-specification:'Lohit Odia Bold';text-align:justify;white-space:pre;shape-inside:url(#rect252);display:inline;opacity:1;fill:#ffffff;fill-rule:evenodd;stroke-width:1.00157"><tspan
         x="318.57812"
         y="927.38781"
         id="tspan292"><tspan
           style="font-weight:normal;font-family:'FONTSPRING DEMO - neue Singular H Black';-inkscape-font-specification:'FONTSPRING DEMO - neue Singular H Black, Normal'"
           id="tspan290">ZACVIK</tspan></tspan></text><path
       style="fill:#ff2a2a;fill-opacity:1;fill-rule:evenodd;stroke-width:0.421532"
       d="m 83.65415,239.83432 v 0.99884 h -5.612417 v -0.99884 z"
       id="path250" /></g></svg>
